# xmcd
#
# Track frame offsets:
#	150
#	12820
#	28675
#	45644
#	56378
#	76915
#	89756
#	101705
#	113465
#	126358
#	139871
#
# Disc length: 2016 seconds
#
# Revision: 0
# Processed by: cddbd v1.5.2PL0 Copyright (c) Steve Scherf et al.
# Submitted via: EasyCDDAExtractor 16.0.6.1
#
DISCID=8907de0b
DTITLE=Ξυλούρης Νίκος - Τα ξυλουρέϊκα-LP, Ν. Ξυλούρης
DYEAR=1978
DGENRE=Κρητική
TTITLE0=Ξυλούρης Νίκος - Την μάννα μου την αγαπώ [μουσ. στ. Ν. Ξυλούρης]
TTITLE1=Ξυλούρης Νίκος - Αρισμαροβιτσόβεργα [μουσ. στ. Ν. Ξυλούρης]
TTITLE2=Ξυλούρης Νίκος-χορωδία - Ο Μυριολής [μουσ. στ. Ν. Ξυλούρης]
TTITLE3=Άνευ ερμηνευτού - Γιούχτας [Ν. Ξυλούρης, ορχηστρικό]
TTITLE4=Ξυλούρης Νίκος - Απ' το Χανιώ την πόρτα [μουσ. στ. Ν. Ξυλούρης]
TTITLE5=Ξυλούρης Νίκος - Το ξηροστεριανό νερό [μουσ. στ. Ν. Ξυλούρης]
TTITLE6=Σκορδαλάκη Κατερίνα - Κράτα καλό λογαριασμό [μουσ. στ. Ν. Ξυλούρης]
TTITLE7=Ξυλούρης Νίκος - Τ' Αγάκου το μετόχι [μουσ. στ. Ν. Ξυλούρης]
TTITLE8=Ξυλούρης Νίκος - Μάννα πολλά μαλώνεις με [μουσ. στ. Ν. Ξυλούρης]
TTITLE9=Ξυλούρης Νίκος-χορωδία - Μπέρδε και μπέρδε [Ν. Ξυλούρης-Ε. Θαλασσινός]
TTITLE10=Άνευ ερμηνευτού - Σαμαριά [Ν. Ξυλούρης, ορχηστρικό]
EXTD=
EXTT0=
EXTT1=
EXTT2=
EXTT3=
EXTT4=
EXTT5=
EXTT6=
EXTT7=
EXTT8=
EXTT9=
EXTT10=
PLAYORDER=
